<?xml version="1.0" encoding="iso-8859-1"?>
<!-- Generator: Adobe Illustrator 16.0.0, SVG Export Plug-In . SVG Version: 6.00 Build 0)  -->
<!DOCTYPE svg PUBLIC "-//W3C//DTD SVG 1.1//EN" "http://www.w3.org/Graphics/SVG/1.1/DTD/svg11.dtd">
<svg version="1.1" id="Capa_1" xmlns="http://www.w3.org/2000/svg" xmlns:xlink="http://www.w3.org/1999/xlink" x="0px" y="0px"
	 width="980.029px" height="980.029px" viewBox="0 0 980.029 980.029" style="enable-background:new 0 0 980.029 980.029;"
	 xml:space="preserve">
<g>
	<g>
		<path d="M980.029,144.398H0v691.233h980.029V144.398z M915.029,770.631H65V209.398h850.029V770.631z"/>
		<polygon points="887.334,561.987 821.303,561.987 821.303,537.022 887.334,537.022 887.334,472.022 821.303,472.022 
			821.303,448.988 887.334,448.988 887.334,383.988 756.303,383.988 756.303,626.987 887.334,626.987 		"/>
		<polygon points="220.225,561.987 154.195,561.987 154.195,448.988 220.225,448.988 220.225,383.988 89.195,383.988 
			89.195,626.987 220.225,626.987 		"/>
		<path d="M570.568,383.988H407.038v242.998h163.531V383.988z M505.568,561.987h-33.531V448.988h33.531V561.987z"/>
		<polygon points="379.841,561.987 313.81,561.987 313.81,385.544 248.81,385.544 248.81,626.987 379.841,626.987 		"/>
		<polygon points="728.504,472.022 662.867,472.022 662.867,448.994 728.898,448.994 728.898,383.994 597.867,383.994 
			597.867,537.022 663.504,537.022 663.504,560.051 597.473,560.051 597.473,625.051 728.504,625.051 		"/>
	</g>
</g>
<g>
</g>
<g>
</g>
<g>
</g>
<g>
</g>
<g>
</g>
<g>
</g>
<g>
</g>
<g>
</g>
<g>
</g>
<g>
</g>
<g>
</g>
<g>
</g>
<g>
</g>
<g>
</g>
<g>
</g>
</svg>
