<?xml version="1.0" encoding="iso-8859-1"?>
<!-- Generator: Adobe Illustrator 16.0.0, SVG Export Plug-In . SVG Version: 6.00 Build 0)  -->
<!DOCTYPE svg PUBLIC "-//W3C//DTD SVG 1.1//EN" "http://www.w3.org/Graphics/SVG/1.1/DTD/svg11.dtd">
<svg version="1.1" id="Capa_1" xmlns="http://www.w3.org/2000/svg" xmlns:xlink="http://www.w3.org/1999/xlink" x="0px" y="0px"
	 width="166.788px" height="166.788px" viewBox="0 0 166.788 166.788" style="enable-background:new 0 0 166.788 166.788;"
	 xml:space="preserve">
<g>
	<path d="M148.688,101.189c0.164,0.64,0.036,1.291-0.372,1.778l-38.094,47.045c-0.377,0.462-0.932,0.73-1.528,0.73H59.854
		L44.7,166.203c-0.386,0.384-0.898,0.585-1.409,0.585c-0.506,0-1.002-0.165-1.376-0.561c-0.779-0.755-0.792-2.01-0.033-2.801
		l15.734-16.033c0.365-0.371,0.876-0.578,1.406-0.578h48.716l36.815-45.462c-0.585-1.248-1.376-1.687-1.961-1.942
		c-3.337-1.272-9.45,1.717-11.643,3.069l-28.181,32.15c-0.39,0.45-0.913,0.683-1.485,0.683H81.851
		c-5.438,0-9.341-1.511-11.615-4.458c-3.105-4.067-1.766-9.225-1.702-9.45c0.229-0.858,1.008-1.438,1.906-1.438h19.434
		c4.811,0,8.379-1.217,10.595-3.604c1.571-1.681,2.18-3.69,2.424-5.114h-54.86L26.68,129.297c-0.798,0.694-2.077,0.627-2.773-0.226
		c-0.704-0.834-0.612-2.082,0.231-2.776l21.897-18.499c0.356-0.322,0.812-0.463,1.272-0.463h57.68c1.035,0,1.894,0.792,1.961,1.827
		c0.012,0.219,0.365,5.65-3.593,9.919c-2.99,3.228-7.539,4.829-13.494,4.829H72.141c-0.067,1.254,0.088,3.105,1.236,4.561
		c1.489,1.942,4.333,2.917,8.46,2.917h18.539l27.791-31.719c0.128-0.141,0.268-0.268,0.42-0.365
		c0.962-0.621,9.499-5.846,15.424-3.568C145.619,96.373,147.72,97.804,148.688,101.189z M149.522,1.957v77.737
		c0,1.103-0.89,1.958-1.973,1.958H94.208v7.17h8.927c1.097,0,1.974,0.864,1.974,1.954c0,1.097-0.89,1.974-1.974,1.974H63.656
		c-1.09,0-1.976-0.877-1.976-1.974c0-1.09,0.886-1.954,1.976-1.954h8.93v-7.17H19.242c-1.084,0-1.976-0.868-1.976-1.958V1.957
		C17.266,0.861,18.158,0,19.242,0h128.32C148.646-0.006,149.522,0.861,149.522,1.957z M21.211,3.927v64.661h124.372V3.927H21.211z
		 M97.283,13.798h38.435v23.327c0,1.097,0.883,1.958,1.967,1.958s1.974-0.874,1.974-1.958V11.828c0-1.111-0.89-1.964-1.974-1.964
		H97.283c-1.09,0-1.967,0.874-1.967,1.964C95.305,12.933,96.182,13.798,97.283,13.798z"/>
</g>
<g>
</g>
<g>
</g>
<g>
</g>
<g>
</g>
<g>
</g>
<g>
</g>
<g>
</g>
<g>
</g>
<g>
</g>
<g>
</g>
<g>
</g>
<g>
</g>
<g>
</g>
<g>
</g>
<g>
</g>
</svg>
