<?xml version="1.0" encoding="iso-8859-1"?>
<!-- Generator: Adobe Illustrator 19.0.0, SVG Export Plug-In . SVG Version: 6.00 Build 0)  -->
<svg version="1.1" id="Layer_1" xmlns="http://www.w3.org/2000/svg" xmlns:xlink="http://www.w3.org/1999/xlink" x="0px" y="0px"
	 viewBox="0 0 511.997 511.997" style="enable-background:new 0 0 511.997 511.997;" xml:space="preserve">
<path style="fill:#434A54;" d="M423.528,3.125c-4.156-4.164-10.906-4.164-15.078,0L262.265,149.312L116.07,3.125
	c-4.164-4.164-10.914-4.164-15.086,0c-4.164,4.164-4.164,10.922,0,15.086l146.195,146.186l-65,65l15.086,15.086l65-65l64.984,65
	l15.094-15.086l-65-65L423.528,18.211C427.7,14.047,427.7,7.289,423.528,3.125z"/>
<path style="fill:#656D78;" d="M511.997,490.652c0,11.797-9.562,21.344-21.344,21.344H21.328C9.547,511.996,0,502.449,0,490.652
	V170.663c0-11.781,9.546-21.328,21.328-21.328h469.325c11.781,0,21.344,9.546,21.344,21.328L511.997,490.652L511.997,490.652z"/>
<path style="fill:#5D9CEC;" d="M383.997,426.652c0,11.797-9.562,21.344-21.344,21.344H64c-11.789,0-21.336-9.547-21.336-21.344
	v-191.99c0-11.781,9.547-21.328,21.336-21.328h298.653c11.781,0,21.344,9.547,21.344,21.328L383.997,426.652L383.997,426.652z"/>
<path style="fill:#4A89DC;" d="M362.653,213.334H64c-11.789,0-21.336,9.547-21.336,21.328v191.991
	c0,11.797,9.547,21.344,21.336,21.344h298.653c11.781,0,21.344-9.547,21.344-21.344v-191.99
	C383.997,222.881,374.435,213.334,362.653,213.334z M362.653,426.652H64v-191.99h298.653l0,0L362.653,426.652L362.653,426.652z"/>
<g>
	<path style="fill:#CCD1D9;" d="M458.653,223.999c0,5.891-4.766,10.664-10.656,10.664s-10.672-4.774-10.672-10.664
		s4.781-10.664,10.672-10.664S458.653,218.107,458.653,223.999z"/>
	<path style="fill:#CCD1D9;" d="M458.653,266.661c0,5.883-4.766,10.664-10.656,10.664s-10.672-4.781-10.672-10.664
		c0-5.891,4.781-10.664,10.672-10.664S458.653,260.771,458.653,266.661z"/>
	<path style="fill:#CCD1D9;" d="M458.653,309.326c0,5.891-4.766,10.672-10.656,10.672s-10.672-4.781-10.672-10.672
		s4.781-10.672,10.672-10.672S458.653,303.436,458.653,309.326z"/>
</g>
<path style="fill:#FFCE54;" d="M448.028,436.996c-11.688,0-21.188-9.5-21.188-21.172s9.5-21.171,21.188-21.171
	c11.656,0,21.156,9.499,21.156,21.171S459.685,436.996,448.028,436.996z"/>
<path style="fill:#F6BB42;" d="M448.028,383.997c-17.594,0-31.844,14.249-31.844,31.827s14.25,31.828,31.844,31.828
	c17.562,0,31.812-14.25,31.812-31.828S465.591,383.997,448.028,383.997z M448.028,426.324c-5.812,0-10.5-4.703-10.5-10.5
	c0-5.781,4.688-10.5,10.5-10.5c5.781,0,10.5,4.719,10.5,10.5C458.528,421.621,453.81,426.324,448.028,426.324z"/>
<polygon style="opacity:0.1;fill:#FFFFFF;enable-background:new    ;" points="231.999,426.652 170.664,426.652 234.663,234.663 
	295.999,234.663 "/>
<g>
</g>
<g>
</g>
<g>
</g>
<g>
</g>
<g>
</g>
<g>
</g>
<g>
</g>
<g>
</g>
<g>
</g>
<g>
</g>
<g>
</g>
<g>
</g>
<g>
</g>
<g>
</g>
<g>
</g>
</svg>
