<?xml version="1.0" encoding="iso-8859-1"?>
<!-- Generator: Adobe Illustrator 19.0.0, SVG Export Plug-In . SVG Version: 6.00 Build 0)  -->
<svg version="1.1" id="Layer_1" xmlns="http://www.w3.org/2000/svg" xmlns:xlink="http://www.w3.org/1999/xlink" x="0px" y="0px"
	 viewBox="0 0 512 512" style="enable-background:new 0 0 512 512;" xml:space="preserve">
<g>
	<g>
		<g>
			<path d="M490.667,0H21.333C9.551,0,0,9.551,0,21.333v341.333C0,374.449,9.551,384,21.333,384H128
				c11.782,0,21.333-9.551,21.333-21.333s-9.551-21.333-21.333-21.333H42.667V42.667h426.667v298.667H384
				c-11.782,0-21.333,9.551-21.333,21.333S372.218,384,384,384h106.667c11.782,0,21.333-9.551,21.333-21.333V21.333
				C512,9.551,502.449,0,490.667,0z"/>
			<path d="M273.75,286.833c-8.444-12.666-27.057-12.666-35.501,0l-128,192C100.798,493.01,110.961,512,128,512h256
				c17.039,0,27.202-18.99,17.75-33.167L273.75,286.833z M167.862,469.333L256,337.126l88.138,132.208H167.862z"/>
		</g>
	</g>
</g>
<g>
</g>
<g>
</g>
<g>
</g>
<g>
</g>
<g>
</g>
<g>
</g>
<g>
</g>
<g>
</g>
<g>
</g>
<g>
</g>
<g>
</g>
<g>
</g>
<g>
</g>
<g>
</g>
<g>
</g>
</svg>
