<?xml version="1.0" encoding="iso-8859-1"?>
<!-- Generator: Adobe Illustrator 19.0.0, SVG Export Plug-In . SVG Version: 6.00 Build 0)  -->
<svg version="1.1" id="Layer_1" xmlns="http://www.w3.org/2000/svg" xmlns:xlink="http://www.w3.org/1999/xlink" x="0px" y="0px"
	 viewBox="0 0 511.999 511.999" style="enable-background:new 0 0 511.999 511.999;" xml:space="preserve">
<g>
	<g>
		<path d="M0,339.898h55.988v24.484h15.708v-24.484h368.607v24.484h15.708v-24.484h55.988V12.007H0V339.898z M15.708,307.835H400.51
			v-15.708H15.708V27.715h480.585v296.476H15.708V307.835z"/>
	</g>
</g>
<g>
	<g>
		<rect x="416.222" y="292.131" width="15.708" height="15.708"/>
	</g>
</g>
<g>
	<g>
		<rect x="440.307" y="292.131" width="15.708" height="15.708"/>
	</g>
</g>
<g>
	<g>
		<rect x="464.392" y="292.131" width="15.708" height="15.708"/>
	</g>
</g>
<g>
	<g>
		<path d="M304.028,388.228H96.057v111.764h207.972c30.813,0,55.883-25.068,55.883-55.882
			C359.911,413.297,334.842,388.228,304.028,388.228z M304.028,484.284H111.764v-80.349h192.264
			c22.152,0,40.175,18.022,40.175,40.175C344.203,466.263,326.18,484.284,304.028,484.284z"/>
	</g>
</g>
<g>
	<g>
		<rect x="128.248" y="435.595" width="15.708" height="16.755"/>
	</g>
</g>
<g>
	<g>
		<rect x="128.248" y="459.68" width="15.708" height="16.755"/>
	</g>
</g>
<g>
	<g>
		<rect x="152.333" y="435.595" width="15.708" height="16.755"/>
	</g>
</g>
<g>
	<g>
		<rect x="152.333" y="459.68" width="15.708" height="16.755"/>
	</g>
</g>
<g>
	<g>
		<rect x="128.248" y="412.557" width="15.708" height="15.708"/>
	</g>
</g>
<g>
	<g>
		<rect x="152.333" y="412.557" width="15.708" height="15.708"/>
	</g>
</g>
<g>
	<g>
		<rect x="176.418" y="435.595" width="15.708" height="16.755"/>
	</g>
</g>
<g>
	<g>
		<rect x="176.418" y="459.68" width="15.708" height="16.755"/>
	</g>
</g>
<g>
	<g>
		<rect x="176.418" y="412.557" width="15.708" height="15.708"/>
	</g>
</g>
<g>
	<g>
		<path d="M239.99,412.243c-17.572,0-31.868,14.296-31.868,31.868s14.296,31.868,31.868,31.868s31.868-14.296,31.868-31.868
			C271.858,426.539,257.562,412.243,239.99,412.243z M239.99,460.27c-8.91,0-16.16-7.25-16.16-16.16c0-8.91,7.25-16.16,16.16-16.16
			c8.91,0,16.16,7.25,16.16,16.16C256.15,453.021,248.902,460.27,239.99,460.27z"/>
	</g>
</g>
<g>
	<g>
		<rect x="231.919" y="435.595" width="15.708" height="16.755"/>
	</g>
</g>
<g>
	<g>
		<rect x="280.089" y="412.557" width="15.708" height="15.708"/>
	</g>
</g>
<g>
	<g>
		<rect x="280.089" y="435.595" width="15.708" height="40.84"/>
	</g>
</g>
<g>
	<g>
		<polygon points="31.903,43.946 31.903,107.824 47.611,107.824 47.611,59.654 183.744,59.654 183.744,43.946 		"/>
	</g>
</g>
<g>
	<g>
		<rect x="199.456" y="43.946" width="24.085" height="15.708"/>
	</g>
</g>
<g>
</g>
<g>
</g>
<g>
</g>
<g>
</g>
<g>
</g>
<g>
</g>
<g>
</g>
<g>
</g>
<g>
</g>
<g>
</g>
<g>
</g>
<g>
</g>
<g>
</g>
<g>
</g>
<g>
</g>
</svg>
