<?xml version="1.0" encoding="iso-8859-1"?>
<!-- Generator: Adobe Illustrator 19.0.0, SVG Export Plug-In . SVG Version: 6.00 Build 0)  -->
<svg version="1.1" id="Layer_1" xmlns="http://www.w3.org/2000/svg" xmlns:xlink="http://www.w3.org/1999/xlink" x="0px" y="0px"
	 viewBox="0 0 512 512" style="enable-background:new 0 0 512 512;" xml:space="preserve">
<g>
	<g>
		<path d="M486.881,85.511H25.119C11.268,85.511,0,96.78,0,110.63V401.37c0,13.851,11.268,25.119,25.119,25.119h461.762
			c13.851,0,25.119-11.268,25.119-25.119V110.63C512,96.78,500.732,85.511,486.881,85.511z M495.967,401.37
			c0,5.01-4.076,9.086-9.086,9.086H25.119c-5.01,0-9.086-4.076-9.086-9.086V110.63c0-5.01,4.076-9.086,9.086-9.086h461.762
			c5.01,0,9.086,4.076,9.086,9.086V401.37z"/>
	</g>
</g>
<g>
	<g>
		<path d="M452.676,119.716H59.324c-4.427,0-8.017,3.589-8.017,8.017v256.534c0,4.427,3.589,8.017,8.017,8.017h393.353
			c4.427,0,8.017-3.589,8.017-8.017V127.733C460.693,123.305,457.104,119.716,452.676,119.716z M444.66,376.251H67.34V135.749
			H444.66V376.251z"/>
	</g>
</g>
<g>
	<g>
		<path d="M33.67,239.432c-4.427,0-8.017,3.589-8.017,8.017v17.102c0,4.427,3.589,8.017,8.017,8.017
			c4.427,0,8.017-3.589,8.017-8.017v-17.102C41.687,243.021,38.097,239.432,33.67,239.432z"/>
	</g>
</g>
<g>
	<g>
		<path d="M478.33,230.881c-4.427,0-8.017,3.589-8.017,8.017v34.205c0,4.427,3.589,8.017,8.017,8.017
			c4.427,0,8.017-3.589,8.017-8.017v-34.205C486.347,234.47,482.757,230.881,478.33,230.881z"/>
	</g>
</g>
<g>
	<g>
		<path d="M478.415,119.716h-0.086c-4.427,0-7.974,3.589-7.974,8.017c0,4.427,3.632,8.017,8.059,8.017s8.017-3.589,8.017-8.017
			C486.432,123.305,482.843,119.716,478.415,119.716z"/>
	</g>
</g>
<g>
	<g>
		<path d="M33.67,196.676c-4.427,0-8.017,3.589-8.017,8.017v8.551c0,4.427,3.589,8.017,8.017,8.017c4.427,0,8.017-3.589,8.017-8.017
			v-8.551C41.687,200.266,38.097,196.676,33.67,196.676z"/>
	</g>
</g>
<g>
	<g>
		<path d="M33.67,290.739c-4.427,0-8.017,3.589-8.017,8.017v8.551c0,4.427,3.589,8.017,8.017,8.017c4.427,0,8.017-3.589,8.017-8.017
			v-8.551C41.687,294.328,38.097,290.739,33.67,290.739z"/>
	</g>
</g>
<g>
	<g>
		<path d="M418.472,333.495H185.735c-3.354-9.93-12.752-17.102-23.8-17.102s-20.446,7.172-23.8,17.102H93.528
			c-4.427,0-8.017,3.589-8.017,8.017s3.589,8.017,8.017,8.017h44.607c3.354,9.93,12.752,17.102,23.8,17.102
			s20.446-7.172,23.8-17.102h232.737c4.427,0,8.017-3.589,8.017-8.017S422.899,333.495,418.472,333.495z M161.935,350.597
			c-5.008,0-9.082-4.074-9.086-9.08c0-0.002,0-0.003,0-0.005c0-0.002,0-0.003,0-0.005c0.003-5.007,4.078-9.08,9.086-9.08
			c5.01,0,9.086,4.076,9.086,9.086C171.021,346.521,166.945,350.597,161.935,350.597z"/>
	</g>
</g>
<g>
	<g>
		<path d="M287.043,215.527l-40.737-20.369c-5.173-2.587-11.2-2.316-16.12,0.725s-7.857,8.31-7.857,14.094v40.737
			c0.001,5.785,2.938,11.053,7.859,14.094c2.678,1.655,5.683,2.489,8.7,2.489c2.527,0,5.062-0.585,7.419-1.764l40.737-20.369
			c5.649-2.825,9.158-8.503,9.158-14.819S292.692,218.353,287.043,215.527z M279.874,230.824l-40.737,20.369
			c-0.099,0.049-0.267,0.134-0.519-0.022c-0.254-0.158-0.254-0.344-0.254-0.455v-40.738c0-0.111,0-0.298,0.253-0.455
			c0.11-0.067,0.203-0.09,0.282-0.09c0.104,0,0.182,0.04,0.238,0.067l40.737,20.369c0.131,0.066,0.295,0.148,0.295,0.478
			C280.169,230.677,280.005,230.759,279.874,230.824z"/>
	</g>
</g>
<g>
	<g>
		<path d="M307.307,153.921H204.693c-23.281,0-42.221,18.941-42.221,42.221v68.409c0,23.281,18.941,42.221,42.221,42.221h102.614
			c23.281,0,42.221-18.941,42.221-42.221v-68.409C349.528,172.861,330.587,153.921,307.307,153.921z M333.495,264.551
			c0,14.44-11.748,26.188-26.188,26.188H204.693c-14.44,0-26.188-11.748-26.188-26.188v-68.409c0-14.44,11.748-26.188,26.188-26.188
			h102.614c14.44,0,26.188,11.748,26.188,26.188V264.551z"/>
	</g>
</g>
<g>
</g>
<g>
</g>
<g>
</g>
<g>
</g>
<g>
</g>
<g>
</g>
<g>
</g>
<g>
</g>
<g>
</g>
<g>
</g>
<g>
</g>
<g>
</g>
<g>
</g>
<g>
</g>
<g>
</g>
</svg>
